<svg version="1.0" xmlns="http://www.w3.org/2000/svg"
 width="512.000000pt" height="512.000000pt" viewBox="0 0 512.000000 512.000000"
 preserveAspectRatio="xMidYMid meet">

<g transform="translate(0.000000,512.000000) scale(0.100000,-0.100000)"
fill="#ffffff" stroke="none">
<path d="M1220 4629 c-14 -6 -36 -20 -49 -32 -13 -12 -125 -224 -250 -472
l-226 -450 0 -1245 0 -1245 22 -70 c60 -189 209 -338 398 -398 l70 -22 1375 0
1375 0 70 22 c188 59 338 209 398 398 l22 70 0 1245 0 1245 -226 450 c-125
248 -237 460 -250 472 -13 12 -37 26 -52 32 -38 15 -2641 14 -2677 0z m2650
-569 c71 -143 130 -262 130 -265 0 -3 -648 -5 -1440 -5 -792 0 -1440 2 -1440
5 0 3 59 122 130 265 l130 260 1180 0 1180 0 130 -260z m235 -1720 l0 -1125
-23 -47 c-26 -53 -87 -112 -141 -136 -33 -16 -152 -17 -1381 -17 -1229 0
-1348 1 -1381 17 -54 24 -115 83 -141 136 l-23 47 -3 1115 c-1 613 0 1120 2
1127 4 11 302 13 1548 11 l1543 -3 0 -1125z"/>
<path d="M1840 2908 c-77 -53 -95 -126 -67 -275 29 -153 98 -290 200 -399 157
-168 352 -255 577 -257 146 -1 231 18 370 86 91 44 117 63 196 142 50 49 107
117 126 150 105 181 149 425 91 503 -68 92 -185 97 -256 12 -15 -17 -28 -45
-31 -63 -20 -149 -30 -189 -56 -243 -120 -246 -425 -341 -666 -207 -72 40
-155 128 -192 203 -28 58 -37 95 -58 247 -6 38 -44 87 -85 108 -43 23 -110 19
-149 -7z"/>
</g>
</svg>
